<?xml version="1.0" standalone="no"?>

<svg version="1.0" xmlns="http://www.w3.org/2000/svg"
 width="997.000000pt" height="1024.000000pt" viewBox="0 0 997.000000 1024.000000"
 preserveAspectRatio="xMidYMid meet">

<g transform="translate(0.000000,1024.000000) scale(0.100000,-0.100000)"
fill="#2d8661" stroke="none">
<path d="M6246 10162 c173 -165 315 -305 311 -308 -1 -2 -62 19 -135 46 -370
139 -782 235 -1232 286 -187 21 -638 29 -830 15 -618 -47 -1149 -186 -1715
-449 -184 -85 -614 -327 -602 -338 2 -3 73 7 158 20 157 26 490 50 589 44 l55
-3 -330 -167 c-390 -197 -506 -271 -860 -550 -232 -182 -265 -212 -460 -420
-286 -304 -293 -312 -363 -404 -364 -483 -623 -1061 -737 -1639 -51 -264 -54
-299 -82 -1005 -6 -165 0 -179 31 -75 61 202 254 622 390 850 364 606 829
1089 1450 1508 54 37 106 67 114 67 9 0 -41 -57 -109 -127 -213 -219 -376
-419 -547 -675 -343 -512 -590 -1137 -691 -1748 -47 -286 -61 -458 -61 -765 0
-267 3 -316 30 -537 62 -491 149 -820 335 -1258 101 -237 186 -401 326 -625
214 -343 512 -698 801 -956 93 -83 171 -149 174 -147 2 3 -22 43 -54 89 -206
297 -343 651 -398 1034 -25 171 -25 557 0 712 10 62 21 113 25 113 3 0 19 -51
35 -112 97 -379 271 -730 488 -985 126 -149 444 -443 478 -443 5 0 5 12 0 28
-5 15 -25 77 -45 137 -84 258 -163 633 -211 1000 -25 195 -27 235 -27 550 1
351 9 462 54 750 20 127 25 154 50 245 l12 45 22 -123 c57 -303 201 -678 385
-998 235 -408 556 -778 953 -1097 92 -74 419 -426 476 -513 102 -155 176 -333
217 -524 15 -68 19 -124 18 -280 -1 -186 -2 -200 -32 -305 -17 -60 -30 -111
-28 -112 1 -2 61 13 132 32 321 88 629 221 834 358 215 144 311 230 418 374
l77 104 3 -63 c10 -193 -57 -535 -142 -731 -19 -44 -22 -45 79 27 559 397 789
917 639 1445 -29 102 -97 248 -159 341 -138 207 -408 449 -668 596 -178 102
-167 109 43 29 313 -118 599 -275 789 -432 322 -269 515 -553 597 -879 22 -91
26 -128 26 -253 0 -100 -5 -167 -16 -214 -31 -131 -22 -127 86 36 135 205 228
431 264 641 22 134 15 348 -15 460 -59 214 -185 416 -363 581 -169 157 -581
385 -983 546 -99 39 -229 95 -290 124 -530 255 -859 659 -945 1160 -25 147
-27 394 -4 557 19 138 71 343 117 463 38 100 113 265 120 265 3 0 4 -78 4
-172 0 -273 49 -554 139 -785 75 -195 209 -437 249 -450 6 -2 9 26 6 78 -4 94
18 228 61 374 33 110 75 208 87 200 5 -2 11 -35 14 -72 21 -244 249 -625 515
-859 252 -222 503 -373 922 -554 405 -175 617 -297 899 -516 225 -175 331
-375 318 -599 -3 -49 -9 -101 -13 -114 l-7 -24 50 27 c140 76 338 259 444 409
108 153 179 331 200 499 19 157 -8 367 -66 512 -31 78 -29 91 39 204 43 71
126 296 113 308 -3 3 -104 -30 -224 -74 -275 -101 -583 -202 -738 -242 -344
-90 -557 -22 -670 214 -38 79 -68 187 -57 198 5 5 46 -10 92 -33 105 -50 182
-69 290 -69 229 0 849 113 1129 207 125 41 187 72 312 152 51 34 97 61 101 61
13 0 9 -53 -7 -106 -28 -94 -18 -105 46 -47 69 63 269 342 269 376 0 14 -35 6
-113 -28 -93 -40 -117 -44 -117 -15 0 29 -66 98 -124 128 -28 14 -99 47 -158
73 -131 56 -171 86 -202 148 -35 69 -61 231 -37 231 5 0 26 -7 46 -16 63 -26
181 -44 299 -46 132 -2 526 12 526 19 0 3 -188 243 -417 535 -651 826 -613
769 -638 945 -20 135 -74 314 -128 417 -107 207 -392 543 -632 744 -191 160
-515 388 -708 498 -48 27 -87 52 -87 56 0 24 479 -107 678 -186 62 -24 153
-67 202 -95 50 -28 93 -51 96 -51 3 0 3 55 -1 123 -17 310 -86 561 -232 837
-89 170 -173 287 -311 436 -389 420 -901 685 -1506 778 l-90 14 70 -66z m-753
-1407 c209 -36 391 -133 601 -321 124 -110 321 -343 304 -359 -3 -3 -47 4 -99
14 -231 48 -461 51 -661 11 -112 -23 -314 -85 -323 -100 -3 -5 29 -7 80 -3 96
7 358 -23 352 -40 -2 -6 -43 -21 -93 -33 -271 -69 -522 -211 -739 -418 -78
-74 -79 -74 56 -38 42 11 111 25 154 31 82 12 345 15 345 5 0 -4 -18 -40 -41
-80 -68 -125 -158 -226 -289 -326 -134 -103 -439 -231 -645 -272 -98 -19 -247
-38 -253 -31 -3 2 20 29 51 60 92 90 164 264 201 485 15 91 22 174 46 505 17
237 49 359 137 528 84 161 245 299 405 348 157 48 274 58 411 34z m2223 -1850
c70 -21 100 -57 206 -247 51 -92 122 -209 158 -260 63 -90 236 -273 350 -372
l55 -47 -40 6 c-129 21 -447 228 -632 412 l-86 85 -126 -7 c-82 -4 -149 -3
-191 5 -151 27 -300 137 -314 233 -7 43 -10 47 -34 47 -42 0 -102 12 -102 20
0 23 223 95 385 124 109 19 307 20 371 1z"/>
</g>
</svg>
